<svg width="22" height="19" viewBox="0 0 22 19" fill="none" xmlns="http://www.w3.org/2000/svg">
<path d="M1.02432 7.09333L2.02432 6.50667V8.72H19.3577V6.52667L20.3443 7.09333C20.4967 7.17304 20.6739 7.19079 20.8391 7.14288C21.0042 7.09497 21.1445 6.98511 21.2305 6.83624C21.3166 6.68737 21.3418 6.51101 21.3009 6.344C21.2599 6.17699 21.1561 6.03225 21.011 5.94L10.691 0L0.35765 5.94C0.27798 5.98168 0.207564 6.03904 0.150637 6.10864C0.0937109 6.17823 0.0514507 6.25862 0.0263992 6.34498C0.00134771 6.43133 -0.00597737 6.52186 0.00486454 6.61111C0.0157065 6.70037 0.0444914 6.78651 0.0894876 6.86435C0.134484 6.9422 0.194761 7.01013 0.266694 7.06408C0.338627 7.11802 0.420728 7.15686 0.508059 7.17825C0.59539 7.19964 0.686146 7.20314 0.774866 7.18855C0.863587 7.17396 0.948438 7.14157 1.02432 7.09333ZM10.591 2.79333C10.6721 2.74652 10.764 2.72188 10.8577 2.72188C10.9513 2.72188 11.0432 2.74652 11.1243 2.79333L15.6043 5.38667H13.4577L10.8577 3.89333L8.25765 5.38667H6.11765L10.591 2.79333Z" fill="#B8C7CE"/>
<path d="M20.5911 16.0533H20.0244V15.4866C20.0244 15.2833 19.9436 15.0883 19.7999 14.9445C19.6561 14.8007 19.4611 14.72 19.2577 14.72H17.3577V9.80664H14.6911V14.72H12.0244V9.80664H9.35775V14.72H6.69108V9.80664H4.02441V14.72H2.12441C1.92108 14.72 1.72608 14.8007 1.5823 14.9445C1.43852 15.0883 1.35775 15.2833 1.35775 15.4866V16.0533H0.791081C0.587748 16.0533 0.392743 16.1341 0.248966 16.2779C0.105188 16.4216 0.0244141 16.6166 0.0244141 16.82V18.72H21.3577V16.82C21.3577 16.6166 21.277 16.4216 21.1332 16.2779C20.9894 16.1341 20.7944 16.0533 20.5911 16.0533V16.0533Z" fill="#B8C7CE"/>
</svg>
