<svg width="17" height="18" viewBox="0 0 17 18" fill="none" xmlns="http://www.w3.org/2000/svg">
<path d="M15.1111 0H1.88889C0.847167 0 0 0.8073 0 1.8V16.2C0 17.1927 0.847167 18 1.88889 18H15.1111C16.1528 18 17 17.1927 17 16.2V1.8C17 0.8073 16.1528 0 15.1111 0ZM1.88889 16.2V1.8H15.1111L15.1121 16.2H1.88889Z" fill="#B8C7CE"/>
<path d="M3.77783 8.99985H5.66672V10.7999H3.77783V8.99985ZM3.77783 12.5999H5.66672V14.3999H3.77783V12.5999ZM7.55561 8.99985H9.4445V10.7999H7.55561V8.99985ZM3.77783 3.59985H13.2223V7.19985H3.77783V3.59985ZM7.55561 12.5999H9.4445V14.3999H7.55561V12.5999ZM11.3334 8.99985H13.2223V14.3999H11.3334V8.99985Z" fill="#B8C7CE"/>
</svg>
