<svg width="17" height="18" viewBox="0 0 17 18" fill="none" xmlns="http://www.w3.org/2000/svg">
<path d="M5.76786 2.25H11.2321V0.84375C11.2321 0.37793 11.6382 0 12.1429 0C12.6475 0 13.0536 0.37793 13.0536 0.84375V2.25H14.5714C15.9109 2.25 17 3.25723 17 4.5V15.75C17 16.991 15.9109 18 14.5714 18H2.42857C1.08717 18 0 16.991 0 15.75V4.5C0 3.25723 1.08717 2.25 2.42857 2.25H3.94643V0.84375C3.94643 0.37793 4.35246 0 4.85714 0C5.36183 0 5.76786 0.37793 5.76786 0.84375V2.25ZM1.82143 8.71875H4.85714V6.75H1.82143V8.71875ZM1.82143 10.4062V12.6562H4.85714V10.4062H1.82143ZM6.67857 10.4062V12.6562H10.3214V10.4062H6.67857ZM12.1429 10.4062V12.6562H15.1786V10.4062H12.1429ZM15.1786 6.75H12.1429V8.71875H15.1786V6.75ZM15.1786 14.3438H12.1429V16.3125H14.5714C14.9054 16.3125 15.1786 16.0594 15.1786 15.75V14.3438ZM10.3214 14.3438H6.67857V16.3125H10.3214V14.3438ZM4.85714 14.3438H1.82143V15.75C1.82143 16.0594 2.09313 16.3125 2.42857 16.3125H4.85714V14.3438ZM10.3214 6.75H6.67857V8.71875H10.3214V6.75Z" fill="#B8C7CE"/>
</svg>
