<svg width="16" height="27" viewBox="0 0 16 27" fill="none" xmlns="http://www.w3.org/2000/svg">
<path d="M1.65458 27C1.21576 27 0.794908 26.8293 0.484615 26.5255C0.174321 26.2217 0 25.8097 0 25.38V6.363C0 5.46863 0.741113 4.743 1.65458 4.743H3.61479C3.67684 4.743 3.73659 4.75762 3.78829 4.7835L3.786 4.78237V0.189C3.786 0.084375 3.87217 0 3.97903 0H10.8961C11.0029 0 11.0891 0.084375 11.0891 0.189V4.75538C11.1192 4.74804 11.1501 4.74426 11.181 4.74413H12.9218C13.8353 4.74413 14.5764 5.46975 14.5764 6.36413V10.899C14.6282 10.8742 14.6853 10.8615 14.743 10.8619H15.6128C15.8265 10.8619 16 11.0317 16 11.241V21.1095C16 21.2101 15.9592 21.3065 15.8866 21.3776C15.814 21.4487 15.7155 21.4886 15.6128 21.4886H14.743C14.6844 21.4888 14.6266 21.4757 14.5741 21.4504L14.5764 21.4515V25.38C14.5764 25.8097 14.4021 26.2217 14.0918 26.5255C13.7815 26.8293 13.3606 27 12.9218 27H1.65458ZM10.0699 23.3651V24.6409C10.0702 24.6912 10.0908 24.7394 10.1272 24.775C10.1635 24.8106 10.2127 24.8307 10.2641 24.831H11.7969C11.8483 24.8307 11.8975 24.8106 11.9339 24.775C11.9702 24.7394 11.9908 24.6912 11.9911 24.6409V23.3651C11.9908 23.3149 11.9702 23.2668 11.9338 23.2314C11.8974 23.196 11.8482 23.1761 11.7969 23.1761H10.2618C10.2106 23.1764 10.1616 23.1964 10.1253 23.2317C10.0889 23.2671 10.0682 23.315 10.0676 23.3651H10.0699ZM6.44366 23.3651V24.6409C6.44396 24.6912 6.46452 24.7394 6.50087 24.775C6.53722 24.8106 6.58644 24.8307 6.63785 24.831H8.16948C8.22089 24.8307 8.2701 24.8106 8.30645 24.775C8.34281 24.7394 8.36336 24.6912 8.36366 24.6409V23.3651C8.36336 23.3149 8.34277 23.2668 8.30638 23.2314C8.27 23.196 8.22078 23.1761 8.16948 23.1761H6.6367C6.58549 23.1764 6.53644 23.1964 6.50012 23.2317C6.4638 23.2671 6.44426 23.315 6.44366 23.3651ZM2.81738 23.3651V24.642C2.81738 24.7466 2.90355 24.831 3.01041 24.831H4.5432C4.5946 24.8307 4.64382 24.8106 4.68017 24.775C4.71652 24.7394 4.73708 24.6912 4.73738 24.6409V23.3651C4.73708 23.3149 4.71648 23.2668 4.6801 23.2314C4.64372 23.196 4.5945 23.1761 4.5432 23.1761H3.01041C2.95922 23.1761 2.91012 23.196 2.87392 23.2315C2.83772 23.2669 2.81738 23.315 2.81738 23.3651ZM10.0688 20.4727V21.7485C10.0691 21.7988 10.0897 21.847 10.126 21.8826C10.1624 21.9182 10.2116 21.9383 10.263 21.9386H11.7958C11.8472 21.9383 11.8964 21.9182 11.9327 21.8826C11.9691 21.847 11.9896 21.7988 11.9899 21.7485V20.4716C11.9899 20.4215 11.9696 20.3734 11.9334 20.338C11.8972 20.3025 11.8481 20.2826 11.7969 20.2826H10.2607C10.2095 20.2826 10.1604 20.3025 10.1242 20.338C10.088 20.3734 10.0676 20.4215 10.0676 20.4716L10.0688 20.4727ZM6.44251 20.4727V21.7485C6.44281 21.7988 6.46337 21.847 6.49972 21.8826C6.53607 21.9182 6.58529 21.9383 6.6367 21.9386H8.16948C8.22089 21.9383 8.2701 21.9182 8.30645 21.8826C8.34281 21.847 8.36336 21.7988 8.36366 21.7485V20.4716C8.36366 20.4215 8.34333 20.3734 8.30712 20.338C8.27092 20.3025 8.22182 20.2826 8.17063 20.2826H6.63555C6.58435 20.2826 6.53525 20.3025 6.49905 20.338C6.46285 20.3734 6.44251 20.4226 6.44251 20.4727ZM2.81623 20.4727V21.7496C2.81623 21.8543 2.90241 21.9386 3.00926 21.9386H4.54205C4.59345 21.9383 4.64267 21.9182 4.67902 21.8826C4.71537 21.847 4.73593 21.7988 4.73623 21.7485V20.4716C4.73623 20.4215 4.71589 20.3734 4.67969 20.338C4.64349 20.3025 4.59439 20.2826 4.5432 20.2826H3.00926C2.95807 20.2826 2.90897 20.3025 2.87277 20.338C2.83657 20.3734 2.81623 20.4226 2.81623 20.4727ZM10.0676 17.5793V18.8561C10.0676 18.9607 10.1538 19.0451 10.2607 19.0451H11.7958C11.847 19.0451 11.8961 19.0252 11.9323 18.9898C11.9685 18.9543 11.9888 18.9063 11.9888 18.8561V17.5793C11.9885 17.529 11.9679 17.481 11.9315 17.4455C11.8951 17.4101 11.8459 17.3902 11.7946 17.3903H10.2618C10.2106 17.3905 10.1616 17.4105 10.1253 17.4459C10.0889 17.4812 10.0682 17.5291 10.0676 17.5793ZM6.44136 17.5793V18.8561C6.44136 18.9607 6.52754 19.0451 6.6344 19.0451H8.16948C8.22068 19.0451 8.26977 19.0252 8.30598 18.9898C8.34218 18.9543 8.36251 18.9063 8.36251 18.8561V17.5793C8.36221 17.529 8.34162 17.481 8.30523 17.4455C8.26885 17.4101 8.21963 17.3902 8.16833 17.3903H6.63555C6.58434 17.3905 6.53529 17.4105 6.49897 17.4459C6.46265 17.4812 6.44197 17.5291 6.44136 17.5793ZM2.81508 17.5793V18.8561C2.81508 18.9607 2.90126 19.0451 3.00811 19.0451H4.5432C4.59439 19.0451 4.64349 19.0252 4.67969 18.9898C4.71589 18.9543 4.73623 18.9063 4.73623 18.8561V17.5793C4.73593 17.529 4.71533 17.481 4.67895 17.4455C4.64257 17.4101 4.59335 17.3902 4.54205 17.3903H3.00926C2.95807 17.3903 2.90897 17.4102 2.87277 17.4456C2.83657 17.4811 2.81508 17.5291 2.81508 17.5793ZM2.57379 10.0271V15.5531C2.57379 15.6577 2.65996 15.7421 2.76682 15.7421H11.6855C11.7367 15.7421 11.7858 15.7222 11.822 15.6868C11.8582 15.6513 11.8785 15.6033 11.8785 15.5531V10.0271C11.8782 9.97679 11.8576 9.9286 11.8213 9.89301C11.7849 9.85742 11.7357 9.8373 11.6843 9.837H2.76797C2.71656 9.8373 2.66735 9.85742 2.631 9.89301C2.59465 9.9286 2.57409 9.97679 2.57379 10.0271ZM1.99469 7.00987V8.34863C1.99469 8.6625 2.25436 8.91675 2.57494 8.91675H12.2255C12.3794 8.91675 12.527 8.85689 12.6358 8.75035C12.7446 8.64381 12.8057 8.4993 12.8057 8.34863V7.00987C12.8057 6.8592 12.7446 6.71469 12.6358 6.60815C12.527 6.50161 12.3794 6.44175 12.2255 6.44175H11.088V7.578H11.6487V7.77825H3.15519V7.578H3.52402C3.61723 7.57799 3.70906 7.55599 3.79174 7.51387L3.78829 7.515V6.50475C3.70629 6.46312 3.61524 6.44151 3.52287 6.44175H2.57264C2.41895 6.44205 2.27165 6.50204 2.16308 6.60855C2.05451 6.71506 1.99469 6.85939 1.99469 7.00987Z" fill="#B8C7CE"/>
</svg>
