<svg width="20" height="19" viewBox="0 0 20 19" fill="none" xmlns="http://www.w3.org/2000/svg">
<path d="M9.1 18.1053C9.65228 18.1053 10.1 17.6575 10.1 17.1053C10.1 16.553 9.65228 16.1053 9.1 16.1053V18.1053ZM1 15.3158H0H1ZM2.8 1L2.8 0L2.8 1ZM17.2 1V0V1ZM18 9.05263C18 9.60492 18.4477 10.0526 19 10.0526C19.5523 10.0526 20 9.60492 20 9.05263H18ZM1 3.57895C0.447715 3.57895 0 4.02666 0 4.57895C0 5.13123 0.447715 5.57895 1 5.57895V3.57895ZM19 5.57895C19.5523 5.57895 20 5.13123 20 4.57895C20 4.02666 19.5523 3.57895 19 3.57895V5.57895ZM2.96203 2.12359C2.58933 2.53116 2.6176 3.16369 3.02517 3.53639C3.43274 3.90909 4.06527 3.88082 4.43797 3.47326L2.96203 2.12359ZM4.44697 3.46341C4.81967 3.05584 4.7914 2.42331 4.38383 2.05061C3.97626 1.67791 3.34373 1.70618 2.97103 2.11375L4.44697 3.46341ZM5.66203 2.12359C5.28933 2.53116 5.3176 3.16369 5.72517 3.53639C6.13274 3.90909 6.76527 3.88082 7.13797 3.47326L5.66203 2.12359ZM7.14697 3.46341C7.51967 3.05584 7.4914 2.42331 7.08383 2.05061C6.67626 1.67791 6.04373 1.70618 5.67103 2.11375L7.14697 3.46341ZM8.36203 2.12359C7.98933 2.53116 8.0176 3.16369 8.42517 3.53639C8.83274 3.90909 9.46527 3.88082 9.83797 3.47326L8.36203 2.12359ZM9.84697 3.46341C10.2197 3.05584 10.1914 2.42331 9.78383 2.05061C9.37626 1.67791 8.74373 1.70618 8.37103 2.11375L9.84697 3.46341ZM17.7694 13.596C17.9725 14.1096 18.5534 14.3614 19.067 14.1583C19.5806 13.9553 19.8324 13.3744 19.6294 12.8607L17.7694 13.596ZM11.0226 13.2286C10.8582 13.7558 11.1523 14.3165 11.6796 14.481C12.2068 14.6454 12.7675 14.3513 12.932 13.824L11.0226 13.2286ZM17.1955 12.3223C16.6432 12.3223 16.1955 12.77 16.1955 13.3223C16.1955 13.8746 16.6432 14.3223 17.1955 14.3223V12.3223ZM20 11.3342C20 10.7819 19.5523 10.3342 19 10.3342C18.4477 10.3342 18 10.7819 18 11.3342H20ZM13.0302 15.2451C12.8266 14.7317 12.2453 14.4806 11.7319 14.6842C11.2186 14.8878 10.9674 15.469 11.171 15.9824L13.0302 15.2451ZM19.7774 15.6135C19.9418 15.0863 19.6477 14.5256 19.1204 14.3611C18.5932 14.1967 18.0325 14.4908 17.868 15.0181L19.7774 15.6135ZM13.6045 16.5198C14.1568 16.5198 14.6045 16.0721 14.6045 15.5198C14.6045 14.9675 14.1568 14.5198 13.6045 14.5198V16.5198ZM10.8 17.5079C10.8 18.0602 11.2477 18.5079 11.8 18.5079C12.3523 18.5079 12.8 18.0602 12.8 17.5079H10.8ZM9.1 16.1053H2.8V18.1053H9.1V16.1053ZM2.8 16.1053C2.58594 16.1053 2.38182 16.0207 2.23224 15.872L0.822178 17.2903C1.34772 17.8128 2.05928 18.1053 2.8 18.1053V16.1053ZM2.23224 15.872C2.08285 15.7234 2 15.5233 2 15.3158H0C0 16.0575 0.296433 16.7676 0.822178 17.2903L2.23224 15.872ZM2 15.3158V2.78947H0V15.3158H2ZM2 2.78947C2 2.58199 2.08285 2.38181 2.23224 2.2333L0.822178 0.814947C0.296433 1.33762 0 2.04776 0 2.78947L2 2.78947ZM2.23224 2.2333C2.38182 2.08459 2.58594 2 2.8 2L2.8 0C2.05928 0 1.34772 0.292474 0.822178 0.814947L2.23224 2.2333ZM2.8 2H17.2V0H2.8V2ZM17.2 2C17.4141 2 17.6182 2.08459 17.7678 2.2333L19.1778 0.814947C18.6523 0.292474 17.9407 0 17.2 0V2ZM17.7678 2.2333C17.9171 2.38181 18 2.58199 18 2.78947H20C20 2.04776 19.7036 1.33762 19.1778 0.814947L17.7678 2.2333ZM18 2.78947V9.05263H20V2.78947H18ZM1 5.57895H19V3.57895H1V5.57895ZM4.43797 3.47326L4.44697 3.46341L2.97103 2.11375L2.96203 2.12359L4.43797 3.47326ZM7.13797 3.47326L7.14697 3.46341L5.67103 2.11375L5.66203 2.12359L7.13797 3.47326ZM9.83797 3.47326L9.84697 3.46341L8.37103 2.11375L8.36203 2.12359L9.83797 3.47326ZM19.6294 12.8607C18.9456 11.1311 17.3406 9.84211 15.391 9.84211V11.8421C16.4042 11.8421 17.3426 12.5161 17.7694 13.596L19.6294 12.8607ZM15.391 9.84211C13.3059 9.84211 11.6193 11.3154 11.0226 13.2286L12.932 13.824C13.3091 12.6146 14.3117 11.8421 15.391 11.8421V9.84211ZM17.1955 14.3223H18.46V12.3223H17.1955V14.3223ZM18.46 14.3223C18.6614 14.3223 18.861 14.2829 19.0474 14.2061L18.2859 12.3568C18.3413 12.334 18.4004 12.3223 18.46 12.3223V14.3223ZM19.0474 14.2061C19.2338 14.1294 19.4036 14.0167 19.5469 13.8743L18.1368 12.4559C18.1798 12.4132 18.2305 12.3796 18.2859 12.3568L19.0474 14.2061ZM19.5469 13.8743C19.6901 13.7318 19.8041 13.5624 19.882 13.3755L18.0358 12.6063C18.0594 12.5497 18.0938 12.4986 18.1368 12.4559L19.5469 13.8743ZM19.882 13.3755C19.9598 13.1886 20 12.9881 20 12.7855H18C18 12.7238 18.0122 12.6629 18.0358 12.6063L19.882 13.3755ZM20 12.7855V11.3342H18V12.7855H20ZM11.171 15.9824C11.8564 17.7106 13.4608 19 15.409 19V17C14.398 17 13.459 16.3263 13.0302 15.2451L11.171 15.9824ZM15.409 19C17.4941 19 19.1807 17.5268 19.7774 15.6135L17.868 15.0181C17.4909 16.2275 16.4883 17 15.409 17V19ZM13.6045 14.5198H12.34V16.5198H13.6045V14.5198ZM12.34 14.5198C11.9335 14.5198 11.5424 14.6803 11.2531 14.9678L12.6632 16.3862C12.5765 16.4724 12.4601 16.5198 12.34 16.5198V14.5198ZM11.2531 14.9678C10.9637 15.2556 10.8 15.6471 10.8 16.0566H12.8C12.8 16.1814 12.7501 16.2998 12.6632 16.3862L11.2531 14.9678ZM10.8 16.0566V17.5079H12.8V16.0566H10.8Z" fill="#B8C7CE"/>
</svg>
