<svg width="17" height="18" viewBox="0 0 17 18" fill="none" xmlns="http://www.w3.org/2000/svg">
<path d="M15.4062 0H1.59375C0.713535 0 0 0.863437 0 1.92857V16.0714C0 17.1366 0.713535 18 1.59375 18H15.4062C16.2865 18 17 17.1366 17 16.0714V1.92857C17 0.863437 16.2865 0 15.4062 0ZM15.207 16.0714H1.79297C1.74013 16.0714 1.68946 16.046 1.6521 16.0008C1.61474 15.9556 1.59375 15.8943 1.59375 15.8304V2.16964C1.59375 2.10571 1.61474 2.04439 1.6521 1.99918C1.68946 1.95397 1.74013 1.92857 1.79297 1.92857H8.5H15.207C15.2599 1.92857 15.3105 1.95397 15.3479 1.99918C15.3853 2.04439 15.4062 2.10571 15.4062 2.16964V15.8304C15.4062 15.8943 15.3853 15.9556 15.3479 16.0008C15.3105 16.046 15.2599 16.0714 15.207 16.0714ZM13.8125 12.375V13.3393C13.8125 13.6055 13.6341 13.8214 13.4141 13.8214H6.77344C6.5534 13.8214 6.375 13.6055 6.375 13.3393V12.375C6.375 12.1087 6.5534 11.8929 6.77344 11.8929H13.4141C13.6341 11.8929 13.8125 12.1087 13.8125 12.375ZM13.8125 8.51786V9.48214C13.8125 9.74841 13.6341 9.96429 13.4141 9.96429H6.77344C6.5534 9.96429 6.375 9.74841 6.375 9.48214V8.51786C6.375 8.25159 6.5534 8.03571 6.77344 8.03571H13.4141C13.6341 8.03571 13.8125 8.25159 13.8125 8.51786ZM13.8125 4.66071V5.625C13.8125 5.89126 13.6341 6.10714 13.4141 6.10714H6.77344C6.5534 6.10714 6.375 5.89126 6.375 5.625V4.66071C6.375 4.39445 6.5534 4.17857 6.77344 4.17857H13.4141C13.6341 4.17857 13.8125 4.39445 13.8125 4.66071ZM5.44531 5.14286C5.44531 5.94169 4.91014 6.58929 4.25 6.58929C3.58986 6.58929 3.05469 5.94169 3.05469 5.14286C3.05469 4.34403 3.58986 3.69643 4.25 3.69643C4.91014 3.69643 5.44531 4.34403 5.44531 5.14286ZM5.44531 9C5.44531 9.79883 4.91014 10.4464 4.25 10.4464C3.58986 10.4464 3.05469 9.79883 3.05469 9C3.05469 8.20117 3.58986 7.55357 4.25 7.55357C4.91014 7.55357 5.44531 8.20117 5.44531 9ZM5.44531 12.8571C5.44531 13.656 4.91014 14.3036 4.25 14.3036C3.58986 14.3036 3.05469 13.656 3.05469 12.8571C3.05469 12.0583 3.58986 11.4107 4.25 11.4107C4.91014 11.4107 5.44531 12.0583 5.44531 12.8571Z" fill="#B8C7CE"/>
</svg>
