<svg width="180" height="44" viewBox="0 0 180 44" fill="none" xmlns="http://www.w3.org/2000/svg">
<path d="M15.2071 18.5435C15.2071 19.5875 14.9829 20.5112 14.5304 21.3186C14.08 22.126 13.4988 22.7964 12.7744 23.3299C12.0521 23.8633 11.2446 24.268 10.3438 24.5399C9.44094 24.8119 8.54636 24.9488 7.64347 24.9488C6.74266 24.9488 5.83978 24.8119 4.92652 24.5399C4.01325 24.268 3.20175 23.8633 2.47736 23.3299C1.75297 22.7964 1.17177 22.126 0.72136 21.3186C0.270953 20.5112 0.0446777 19.5875 0.0446777 18.5435V6.51327C0.0446777 5.44433 0.277096 4.50823 0.739958 3.70081C1.20074 2.8934 1.78817 2.21675 2.51256 1.67294C3.23695 1.12706 4.04235 0.711935 4.94525 0.4255C5.84606 0.141142 6.74266 0 7.64347 0C8.54636 0 9.44094 0.141142 10.3438 0.4255C11.2446 0.711935 12.0521 1.12706 12.7744 1.67294C13.4988 2.21675 14.08 2.8934 14.5304 3.70081C14.9829 4.50823 15.2071 5.44433 15.2071 6.51327V18.5435ZM11.4335 7.3954C11.4335 6.70837 11.3153 6.1272 11.0787 5.65189C10.8421 5.17865 10.5389 4.79881 10.1715 4.502C9.80415 4.20519 9.39946 3.9914 8.9615 3.86064C8.52147 3.72987 8.08978 3.66553 7.6622 3.66553C7.23463 3.66553 6.80086 3.72987 6.3629 3.86064C5.92287 3.9914 5.52012 4.20519 5.15274 4.502C4.78536 4.79881 4.48233 5.17865 4.24571 5.65189C4.00702 6.1272 3.88878 6.70837 3.88878 7.3954V17.6946C3.88878 18.3816 4.00702 18.9586 4.24571 19.4215C4.48233 19.8823 4.78536 20.2559 5.15274 20.5527C5.52012 20.8495 5.92287 21.0633 6.3629 21.1941C6.80086 21.3248 7.23463 21.3892 7.6622 21.3892C8.08978 21.3892 8.52147 21.3248 8.9615 21.1941C9.39946 21.0633 9.80415 20.8495 10.1715 20.5527C10.5389 20.2559 10.8421 19.8823 11.0787 19.4215C11.3153 18.9586 11.4335 18.3816 11.4335 17.6946V7.3954Z" fill="#2B2A29"/>
<path d="M34.9441 0.0354004C35.845 0.0354004 36.7354 0.176542 37.6238 0.460901C38.5142 0.747335 39.3029 1.18529 40.0024 1.77891C40.704 2.37254 41.2601 3.11353 41.6877 4.00397C42.1153 4.89233 42.3292 5.93221 42.3292 7.11738C42.3292 8.2569 42.08 9.28225 41.5881 10.1955C41.0941 11.1088 40.4133 11.7813 39.5416 12.2068C40.6375 12.6821 41.4636 13.4355 42.0261 14.4671C42.5844 15.4987 42.8626 16.5739 42.8626 17.6885C42.8626 18.9463 42.626 20.0381 42.1507 20.9638C41.6754 21.8895 41.0588 22.6471 40.2992 23.2407C39.5416 23.8344 38.6864 24.2723 37.7379 24.5587C36.7873 24.8431 35.8388 24.9842 34.8902 24.9842C33.869 24.9842 32.8851 24.8493 31.9365 24.5753C30.9859 24.3034 30.1453 23.8759 29.4085 23.2947C28.6737 22.7135 28.0863 21.9725 27.6462 21.0696C27.2083 20.1688 26.9883 19.0999 26.9883 17.867C26.9883 17.2505 27.0776 16.6507 27.2561 16.0695C27.4325 15.4883 27.6816 14.9487 28.0033 14.4505C28.3229 13.9503 28.6862 13.5061 29.0889 13.1159C29.4915 12.7236 29.9315 12.4206 30.4048 12.2068C29.504 11.8041 28.8045 11.1524 28.3063 10.2495C27.8061 9.34867 27.5571 8.29218 27.5571 7.0821C27.5571 5.89485 27.777 4.86327 28.217 3.98529C28.655 3.1073 29.2259 2.37254 29.9357 1.77891C30.6476 1.18529 31.4385 0.747335 32.3165 0.460901C33.1944 0.176542 34.0662 0.0354004 34.9441 0.0354004ZM38.5556 7.13607C38.5556 6.02561 38.1945 5.17876 37.4701 4.58514C36.7478 3.99774 35.9114 3.70093 34.9608 3.70093C34.5103 3.70093 34.0661 3.77773 33.6261 3.93132C33.1882 4.08699 32.8021 4.30493 32.47 4.60174C32.1379 4.89856 31.864 5.26179 31.6523 5.68106C31.4385 6.10864 31.3305 6.59018 31.3305 7.13607C31.3305 7.69856 31.4322 8.20293 31.6335 8.64296C31.8349 9.07469 32.1088 9.44207 32.4513 9.73888C32.7958 10.0295 33.1819 10.2557 33.6095 10.4093C34.035 10.565 34.4875 10.6418 34.9608 10.6418C35.4112 10.6418 35.8574 10.5587 36.2954 10.3927C36.7354 10.2266 37.1215 10.0004 37.4536 9.7036C37.7857 9.40678 38.0513 9.0394 38.2526 8.6056C38.456 8.16764 38.5556 7.68195 38.5556 7.13607ZM34.9254 14.1641C34.4044 14.1641 33.9063 14.2471 33.431 14.4132C32.9557 14.5792 32.5405 14.8241 32.1856 15.1438C31.8286 15.4634 31.5443 15.8433 31.3305 16.2833C31.1167 16.7212 31.0109 17.2256 31.0109 17.7943C31.0109 18.9338 31.372 19.818 32.0963 20.447C32.8207 21.0759 33.7631 21.3893 34.9254 21.3893C36.0649 21.3893 37.001 21.0759 37.7379 20.447C38.4727 19.818 38.8401 18.911 38.8401 17.7238C38.8401 17.2028 38.7342 16.7212 38.5204 16.2833C38.3067 15.8433 38.0222 15.4634 37.6652 15.1438C37.3103 14.8241 36.8952 14.5792 36.4199 14.4132C35.9466 14.2471 35.4485 14.1641 34.9254 14.1641Z" fill="#2B2A29"/>
<path d="M60.802 18.5435C60.802 19.5875 60.5758 20.5112 60.1254 21.3186C59.6749 22.126 59.0939 22.7964 58.3695 23.3299C57.6451 23.8633 56.8397 24.268 55.9368 24.5399C55.036 24.8119 54.1394 24.9488 53.2386 24.9488C52.3357 24.9488 51.4348 24.8119 50.5215 24.5399C49.6082 24.268 48.7946 23.8633 48.0702 23.3299C47.3479 22.7964 46.7668 22.126 46.3143 21.3186C45.8639 20.5112 45.6396 19.5875 45.6396 18.5435V6.51327C45.6396 5.44433 45.8701 4.50823 46.3329 3.70081C46.7958 2.8934 47.3833 2.21675 48.1077 1.67294C48.83 1.12706 49.6374 0.711935 50.5382 0.4255C51.4411 0.141142 52.3357 0 53.2386 0C54.1394 0 55.036 0.141142 55.9368 0.4255C56.8397 0.711935 57.6451 1.12706 58.3695 1.67294C59.0939 2.21675 59.6749 2.8934 60.1254 3.70081C60.5758 4.50823 60.802 5.44433 60.802 6.51327V18.5435ZM57.0286 7.3954C57.0286 6.70837 56.9102 6.1272 56.6715 5.65189C56.4349 5.17865 56.1319 4.79881 55.7645 4.502C55.3971 4.20519 54.9945 3.9914 54.5545 3.86064C54.1165 3.72987 53.6828 3.66553 53.2552 3.66553C52.8276 3.66553 52.3958 3.72987 51.9557 3.86064C51.5178 3.9914 51.1152 4.20519 50.7457 4.502C50.3783 4.79881 50.0753 5.17865 49.8387 5.65189C49.6021 6.1272 49.4837 6.70837 49.4837 7.3954V17.6946C49.4837 18.3816 49.6021 18.9586 49.8387 19.4215C50.0753 19.8823 50.3783 20.2559 50.7457 20.5527C51.1152 20.8495 51.5178 21.0633 51.9557 21.1941C52.3958 21.3248 52.8276 21.3892 53.2552 21.3892C53.6828 21.3892 54.1165 21.3248 54.5545 21.1941C54.9945 21.0633 55.3971 20.8495 55.7645 20.5527C56.1319 20.2559 56.4349 19.8823 56.6715 19.4215C56.9102 18.9586 57.0286 18.3816 57.0286 17.6946V7.3954Z" fill="#2B2A29"/>
<path d="M79.2022 18.5435C79.2022 19.5875 78.978 20.5112 78.5255 21.3186C78.0751 22.126 77.4939 22.7964 76.7695 23.3299C76.0472 23.8633 75.2398 24.268 74.3389 24.5399C73.4361 24.8119 72.5415 24.9488 71.6386 24.9488C70.7378 24.9488 69.8349 24.8119 68.9216 24.5399C68.0084 24.268 67.1969 23.8633 66.4725 23.3299C65.7481 22.7964 65.1669 22.126 64.7165 21.3186C64.2661 20.5112 64.0398 19.5875 64.0398 18.5435V6.51327C64.0398 5.44433 64.2722 4.50823 64.7351 3.70081C65.1959 2.8934 65.7833 2.21675 66.5077 1.67294C67.2321 1.12706 68.0375 0.711935 68.9404 0.4255C69.8412 0.141142 70.7378 0 71.6386 0C72.5415 0 73.4361 0.141142 74.3389 0.4255C75.2398 0.711935 76.0472 1.12706 76.7695 1.67294C77.4939 2.21675 78.0751 2.8934 78.5255 3.70081C78.978 4.50823 79.2022 5.44433 79.2022 6.51327V18.5435ZM75.4286 7.3954C75.4286 6.70837 75.3104 6.1272 75.0738 5.65189C74.8372 5.17865 74.534 4.79881 74.1667 4.502C73.7993 4.20519 73.3946 3.9914 72.9566 3.86064C72.5166 3.72987 72.0849 3.66553 71.6573 3.66553C71.2297 3.66553 70.796 3.72987 70.358 3.86064C69.918 3.9914 69.5152 4.20519 69.1479 4.502C68.7805 4.79881 68.4775 5.17865 68.2408 5.65189C68.0021 6.1272 67.8839 6.70837 67.8839 7.3954V17.6946C67.8839 18.3816 68.0021 18.9586 68.2408 19.4215C68.4775 19.8823 68.7805 20.2559 69.1479 20.5527C69.5152 20.8495 69.918 21.0633 70.358 21.1941C70.796 21.3248 71.2297 21.3892 71.6573 21.3892C72.0849 21.3892 72.5166 21.3248 72.9566 21.1941C73.3946 21.0633 73.7993 20.8495 74.1667 20.5527C74.534 20.2559 74.8372 19.8823 75.0738 19.4215C75.3104 18.9586 75.4286 18.3816 75.4286 17.6946V7.3954Z" fill="#2B2A29"/>
<path d="M97.6045 18.5435C97.6045 19.5875 97.3783 20.5112 96.9278 21.3186C96.4774 22.126 95.8964 22.7964 95.172 23.3299C94.4476 23.8633 93.6422 24.268 92.7393 24.5399C91.8385 24.8119 90.9417 24.9488 90.0409 24.9488C89.138 24.9488 88.2372 24.8119 87.324 24.5399C86.4107 24.268 85.5971 23.8633 84.8727 23.3299C84.1504 22.7964 83.5693 22.126 83.1168 21.3186C82.6664 20.5112 82.4421 19.5875 82.4421 18.5435V6.51327C82.4421 5.44433 82.6726 4.50823 83.1354 3.70081C83.5983 2.8934 84.1858 2.21675 84.9102 1.67294C85.6325 1.12706 86.4398 0.711935 87.3406 0.4255C88.2435 0.141142 89.138 0 90.0409 0C90.9417 0 91.8385 0.141142 92.7393 0.4255C93.6422 0.711935 94.4476 1.12706 95.172 1.67294C95.8964 2.21675 96.4774 2.8934 96.9278 3.70081C97.3783 4.50823 97.6045 5.44433 97.6045 6.51327V18.5435ZM93.8311 7.3954C93.8311 6.70837 93.7127 6.1272 93.474 5.65189C93.2374 5.17865 92.9344 4.79881 92.567 4.502C92.1996 4.20519 91.797 3.9914 91.357 3.86064C90.919 3.72987 90.4852 3.66553 90.0577 3.66553C89.6301 3.66553 89.1983 3.72987 88.7582 3.86064C88.3203 3.9914 87.9177 4.20519 87.5482 4.502C87.1808 4.79881 86.8778 5.17865 86.6412 5.65189C86.4046 6.1272 86.2862 6.70837 86.2862 7.3954V17.6946C86.2862 18.3816 86.4046 18.9586 86.6412 19.4215C86.8778 19.8823 87.1808 20.2559 87.5482 20.5527C87.9177 20.8495 88.3203 21.0633 88.7582 21.1941C89.1983 21.3248 89.6301 21.3892 90.0577 21.3892C90.4852 21.3892 90.919 21.3248 91.357 21.1941C91.797 21.0633 92.1996 20.8495 92.567 20.5527C92.9344 20.2559 93.2374 19.8823 93.474 19.4215C93.7127 18.9586 93.8311 18.3816 93.8311 17.6946V7.3954Z" fill="#2B2A29"/>
<path d="M117.339 0.0354004C118.242 0.0354004 119.131 0.176542 120.021 0.460901C120.912 0.747335 121.7 1.18529 122.4 1.77891C123.099 2.37254 123.658 3.11353 124.085 4.00397C124.513 4.89233 124.724 5.93221 124.724 7.11738C124.724 8.2569 124.475 9.28225 123.983 10.1955C123.492 11.1088 122.809 11.7813 121.937 12.2068C123.035 12.6821 123.859 13.4355 124.424 14.4671C124.98 15.4987 125.26 16.5739 125.26 17.6885C125.26 18.9463 125.021 20.0381 124.548 20.9638C124.073 21.8895 123.456 22.6471 122.697 23.2407C121.937 23.8344 121.084 24.2723 120.133 24.5587C119.185 24.8431 118.236 24.9842 117.285 24.9842C116.266 24.9842 115.28 24.8493 114.332 24.5753C113.383 24.3034 112.541 23.8759 111.806 23.2947C111.069 22.7135 110.482 21.9725 110.044 21.0696C109.604 20.1688 109.386 19.0999 109.386 17.867C109.386 17.2505 109.473 16.6507 109.651 16.0695C109.83 15.4883 110.079 14.9487 110.399 14.4505C110.72 13.9503 111.081 13.5061 111.484 13.1159C111.889 12.7236 112.327 12.4206 112.802 12.2068C111.899 11.8041 111.2 11.1524 110.702 10.2495C110.203 9.34867 109.954 8.29218 109.954 7.0821C109.954 5.89485 110.174 4.86327 110.612 3.98529C111.052 3.1073 111.621 2.37254 112.333 1.77891C113.045 1.18529 113.834 0.747335 114.712 0.460901C115.59 0.176542 116.461 0.0354004 117.339 0.0354004ZM120.953 7.13607C120.953 6.02561 120.59 5.17876 119.868 4.58514C119.143 3.99774 118.307 3.70093 117.358 3.70093C116.908 3.70093 116.461 3.77773 116.023 3.93132C115.583 4.08699 115.197 4.30493 114.865 4.60174C114.533 4.89856 114.261 5.26179 114.047 5.68106C113.834 6.10864 113.728 6.59018 113.728 7.13607C113.728 7.69856 113.828 8.20293 114.029 8.64296C114.232 9.07469 114.504 9.44207 114.849 9.73888C115.193 10.0295 115.577 10.2557 116.005 10.4093C116.432 10.565 116.883 10.6418 117.358 10.6418C117.808 10.6418 118.253 10.5587 118.693 10.3927C119.131 10.2266 119.517 10.0004 119.849 9.7036C120.181 9.40678 120.449 9.0394 120.65 8.6056C120.851 8.16764 120.953 7.68195 120.953 7.13607ZM117.323 14.1641C116.8 14.1641 116.302 14.2471 115.826 14.4132C115.353 14.5792 114.938 14.8241 114.581 15.1438C114.226 15.4634 113.942 15.8433 113.728 16.2833C113.514 16.7212 113.406 17.2256 113.406 17.7943C113.406 18.9338 113.769 19.818 114.492 20.447C115.216 21.0759 116.158 21.3893 117.323 21.3893C118.46 21.3893 119.398 21.0759 120.133 20.447C120.87 19.818 121.237 18.911 121.237 17.7238C121.237 17.2028 121.129 16.7212 120.918 16.2833C120.704 15.8433 120.417 15.4634 120.063 15.1438C119.706 14.8241 119.291 14.5792 118.817 14.4132C118.342 14.2471 117.844 14.1641 117.323 14.1641Z" fill="#2B2A29"/>
<path d="M143.198 18.5435C143.198 19.5875 142.973 20.5112 142.521 21.3186C142.07 22.126 141.489 22.7964 140.765 23.3299C140.043 23.8633 139.235 24.268 138.334 24.5399C137.431 24.8119 136.537 24.9488 135.634 24.9488C134.733 24.9488 133.83 24.8119 132.917 24.5399C132.004 24.268 131.192 23.8633 130.468 23.3299C129.743 22.7964 129.162 22.126 128.712 21.3186C128.261 20.5112 128.035 19.5875 128.035 18.5435V6.51327C128.035 5.44433 128.268 4.50823 128.73 3.70081C129.191 2.8934 129.779 2.21675 130.503 1.67294C131.227 1.12706 132.033 0.711935 132.936 0.4255C133.837 0.141142 134.733 0 135.634 0C136.537 0 137.431 0.141142 138.334 0.4255C139.235 0.711935 140.043 1.12706 140.765 1.67294C141.489 2.21675 142.07 2.8934 142.521 3.70081C142.973 4.50823 143.198 5.44433 143.198 6.51327V18.5435ZM139.424 7.3954C139.424 6.70837 139.306 6.1272 139.069 5.65189C138.833 5.17865 138.529 4.79881 138.162 4.502C137.795 4.20519 137.39 3.9914 136.952 3.86064C136.512 3.72987 136.08 3.66553 135.653 3.66553C135.225 3.66553 134.791 3.72987 134.353 3.86064C133.913 3.9914 133.511 4.20519 133.143 4.502C132.776 4.79881 132.473 5.17865 132.236 5.65189C131.997 6.1272 131.879 6.70837 131.879 7.3954V17.6946C131.879 18.3816 131.997 18.9586 132.236 19.4215C132.473 19.8823 132.776 20.2559 133.143 20.5527C133.511 20.8495 133.913 21.0633 134.353 21.1941C134.791 21.3248 135.225 21.3892 135.653 21.3892C136.08 21.3892 136.512 21.3248 136.952 21.1941C137.39 21.0633 137.795 20.8495 138.162 20.5527C138.529 20.2559 138.833 19.8823 139.069 19.4215C139.306 18.9586 139.424 18.3816 139.424 17.6946V7.3954Z" fill="#2B2A29"/>
<path d="M161.6 18.5435C161.6 19.5875 161.373 20.5112 160.923 21.3186C160.473 22.126 159.891 22.7964 159.167 23.3299C158.443 23.8633 157.637 24.268 156.734 24.5399C155.834 24.8119 154.937 24.9488 154.036 24.9488C153.133 24.9488 152.232 24.8119 151.319 24.5399C150.406 24.268 149.592 23.8633 148.868 23.3299C148.146 22.7964 147.564 22.126 147.112 21.3186C146.662 20.5112 146.437 19.5875 146.437 18.5435V6.51327C146.437 5.44433 146.668 4.50823 147.131 3.70081C147.593 2.8934 148.181 2.21675 148.905 1.67294C149.628 1.12706 150.435 0.711935 151.336 0.4255C152.239 0.141142 153.133 0 154.036 0C154.937 0 155.834 0.141142 156.734 0.4255C157.637 0.711935 158.443 1.12706 159.167 1.67294C159.891 2.21675 160.473 2.8934 160.923 3.70081C161.373 4.50823 161.6 5.44433 161.6 6.51327V18.5435ZM157.826 7.3954C157.826 6.70837 157.708 6.1272 157.469 5.65189C157.233 5.17865 156.93 4.79881 156.562 4.502C156.195 4.20519 155.792 3.9914 155.352 3.86064C154.914 3.72987 154.48 3.66553 154.053 3.66553C153.625 3.66553 153.193 3.72987 152.753 3.86064C152.315 3.9914 151.913 4.20519 151.543 4.502C151.176 4.79881 150.873 5.17865 150.636 5.65189C150.4 6.1272 150.281 6.70837 150.281 7.3954V17.6946C150.281 18.3816 150.4 18.9586 150.636 19.4215C150.873 19.8823 151.176 20.2559 151.543 20.5527C151.913 20.8495 152.315 21.0633 152.753 21.1941C153.193 21.3248 153.625 21.3892 154.053 21.3892C154.48 21.3892 154.914 21.3248 155.352 21.1941C155.792 21.0633 156.195 20.8495 156.562 20.5527C156.93 20.2559 157.233 19.8823 157.469 19.4215C157.708 18.9586 157.826 18.3816 157.826 17.6946V7.3954Z" fill="#2B2A29"/>
<path d="M180 18.5435C180 19.5875 179.776 20.5112 179.323 21.3186C178.873 22.126 178.292 22.7964 177.567 23.3299C176.845 23.8633 176.038 24.268 175.137 24.5399C174.234 24.8119 173.339 24.9488 172.436 24.9488C171.536 24.9488 170.633 24.8119 169.719 24.5399C168.806 24.268 167.995 23.8633 167.27 23.3299C166.546 22.7964 165.965 22.126 165.514 21.3186C165.064 20.5112 164.838 19.5875 164.838 18.5435V6.51327C164.838 5.44433 165.07 4.50823 165.533 3.70081C165.994 2.8934 166.581 2.21675 167.306 1.67294C168.03 1.12706 168.835 0.711935 169.738 0.4255C170.639 0.141142 171.536 0 172.436 0C173.339 0 174.234 0.141142 175.137 0.4255C176.038 0.711935 176.845 1.12706 177.567 1.67294C178.292 2.21675 178.873 2.8934 179.323 3.70081C179.776 4.50823 180 5.44433 180 6.51327V18.5435ZM176.226 7.3954C176.226 6.70837 176.108 6.1272 175.872 5.65189C175.635 5.17865 175.332 4.79881 174.965 4.502C174.597 4.20519 174.192 3.9914 173.754 3.86064C173.314 3.72987 172.883 3.66553 172.455 3.66553C172.028 3.66553 171.594 3.72987 171.156 3.86064C170.716 3.9914 170.313 4.20519 169.946 4.502C169.578 4.79881 169.275 5.17865 169.039 5.65189C168.8 6.1272 168.682 6.70837 168.682 7.3954V17.6946C168.682 18.3816 168.8 18.9586 169.039 19.4215C169.275 19.8823 169.578 20.2559 169.946 20.5527C170.313 20.8495 170.716 21.0633 171.156 21.1941C171.594 21.3248 172.028 21.3892 172.455 21.3892C172.883 21.3892 173.314 21.3248 173.754 21.1941C174.192 21.0633 174.597 20.8495 174.965 20.5527C175.332 20.2559 175.635 19.8823 175.872 19.4215C176.108 18.9586 176.226 18.3816 176.226 17.6946V7.3954Z" fill="#2B2A29"/>
<path d="M2.98175 32.394C3.37612 32.394 3.78287 32.4459 4.20214 32.5518C4.62142 32.6576 4.98672 32.8445 5.29807 33.1081L4.86222 33.6685C4.56126 33.4298 4.24786 33.2637 3.92199 33.1703C3.59611 33.0769 3.30337 33.0313 3.04392 33.0313C2.75333 33.0313 2.47105 33.0728 2.19707 33.1558C1.92309 33.2388 1.67616 33.3737 1.45822 33.5543C1.24235 33.7349 1.0679 33.9736 0.939216 34.2642C0.808453 34.5568 0.744208 34.9097 0.744208 35.3269V37.278C0.744208 37.6848 0.808453 38.0335 0.939216 38.3261C1.0679 38.6146 1.24235 38.8554 1.45822 39.0422C1.67616 39.229 1.92309 39.366 2.19707 39.449C2.47105 39.5321 2.74923 39.5736 3.02944 39.5736C3.27644 39.5736 3.58368 39.53 3.94483 39.4407C4.30807 39.3536 4.61315 39.2103 4.86222 39.0132L5.28146 39.5424C4.96182 39.7749 4.59852 39.943 4.19377 40.051C3.78903 40.1568 3.39051 40.2108 2.99822 40.2108C2.54159 40.2108 2.13068 40.1423 1.76122 40.0095C1.39384 39.8745 1.08041 39.6815 0.825107 39.4345C0.567732 39.1854 0.37465 38.8928 0.241811 38.5565C0.108972 38.2182 0.0446777 37.8487 0.0446777 37.444V35.1442C0.0446777 34.7312 0.115282 34.3555 0.256423 34.0172C0.39964 33.6809 0.600908 33.3945 0.862435 33.1558C1.12396 32.9171 1.4353 32.7303 1.79231 32.5954C2.15139 32.4605 2.54795 32.394 2.98175 32.394Z" fill="#2B2A29"/>
<path d="M7.9857 33.156V36.0411C7.9857 36.6804 7.9422 37.2346 7.85087 37.6995C7.75954 38.1645 7.63084 38.563 7.46272 38.9013C7.29459 39.2376 7.09116 39.5219 6.8587 39.7544C6.62623 39.9848 6.36473 40.1903 6.07415 40.3667L5.73169 39.8374C5.98076 39.6714 6.20073 39.4908 6.39376 39.2936C6.58472 39.0964 6.74454 38.8453 6.8753 38.5401C7.00399 38.235 7.10566 37.8614 7.17831 37.4214C7.25095 36.9814 7.28631 36.4355 7.28631 35.7817V32.5188H12.2117V40.1342H11.5122V33.156H7.9857Z" fill="#2B2A29"/>
<path d="M14.8395 43.2103L15.9582 40.1031L15.5224 39.6506L13.1458 32.5188H13.8764C14.0819 33.1083 14.2791 33.6998 14.4659 34.2893C14.6527 34.8808 14.8499 35.4765 15.0574 36.0764L16.2218 39.5281H16.2384L17.4962 36.0764C17.7142 35.4765 17.9321 34.8808 18.1501 34.2893C18.3659 33.6998 18.5797 33.1083 18.7873 32.5188H19.5158C18.864 34.3204 18.2081 36.1055 17.5502 37.8718C16.8922 39.6381 16.2384 41.4169 15.5845 43.2103H14.8395Z" fill="#2B2A29"/>
<path d="M24.5824 40.1341V36.5122H22.9676C22.7808 36.5122 22.6106 36.5288 22.4611 36.5599C22.3117 36.591 22.1706 36.6491 22.0419 36.7384C21.9132 36.8256 21.799 36.948 21.6994 37.1037C21.6019 37.2573 21.5167 37.4649 21.4441 37.7243L20.7446 40.1341H20.0286L20.7758 37.6268C20.8899 37.2407 21.0268 36.9128 21.1867 36.645C21.3486 36.3731 21.6102 36.1967 21.9713 36.1136C21.6724 36.0306 21.4421 35.8604 21.2802 35.603C21.1204 35.3436 20.9833 35.0281 20.8692 34.6586L20.1696 32.4875H20.8692L21.5998 34.7624C21.6724 34.999 21.7638 35.1879 21.878 35.3332C21.9921 35.4785 22.1146 35.5906 22.2433 35.6736C22.374 35.7566 22.511 35.8106 22.6563 35.8355C22.8015 35.8625 22.9447 35.8749 23.09 35.8749H24.5824V32.4875H25.2818V35.8749H26.7743C26.9196 35.8749 27.0648 35.8625 27.208 35.8355C27.3533 35.8106 27.4904 35.7566 27.6211 35.6736C27.7498 35.5906 27.866 35.4785 27.9698 35.3332C28.0736 35.1879 28.167 34.999 28.25 34.7624L28.9806 32.4875H29.6801L28.9952 34.6586C28.881 35.0281 28.744 35.3436 28.5842 35.603C28.4244 35.8604 28.194 36.0306 27.893 36.1136C28.2563 36.1967 28.5178 36.3731 28.6776 36.645C28.8374 36.9128 28.9744 37.2407 29.0886 37.6268L29.8358 40.1341H29.1052L28.4057 37.7243C28.333 37.4649 28.248 37.2573 28.1484 37.1037C28.0508 36.948 27.9387 36.8256 27.8141 36.7384C27.6896 36.6491 27.5506 36.591 27.3949 36.5599C27.2392 36.5288 27.0689 36.5122 26.8821 36.5122H25.2818V40.1341H24.5824Z" fill="#2B2A29"/>
<path d="M36.2682 29.5193C35.8759 29.6853 35.554 29.8099 35.3112 29.8929C35.0642 29.9738 34.8131 30.0672 34.5536 30.171C34.0036 30.3786 33.5491 30.5944 33.19 30.8165C32.833 31.0386 32.5424 31.2939 32.3244 31.5783C32.1065 31.8626 31.9447 32.1968 31.8409 32.5808C31.7371 32.9648 31.654 33.4256 31.5917 33.9632C31.6021 33.9632 31.6104 33.9652 31.6145 33.9715C31.6208 33.9756 31.627 33.9798 31.6374 33.9798C31.7723 33.7743 31.9383 33.5979 32.1293 33.4505C32.3244 33.301 32.5299 33.1765 32.7499 33.0748C32.9658 32.971 33.19 32.8963 33.4121 32.8527C33.6384 32.805 33.8479 32.7821 34.0451 32.7821C34.9646 32.7821 35.6683 33.0229 36.1623 33.5024C36.6584 33.9839 36.9053 34.6502 36.9053 35.497V37.4336C36.9053 37.8695 36.8306 38.2576 36.6812 38.598C36.5296 38.9384 36.3179 39.2311 36.0481 39.476C35.7803 39.7168 35.4565 39.9036 35.0746 40.0323C34.6968 40.1609 34.2776 40.2253 33.821 40.2253C32.887 40.2253 32.1585 39.9721 31.6416 39.4656C31.1207 38.9571 30.8611 38.2846 30.8611 37.444V35.4867C30.8611 35.0819 30.8715 34.6896 30.8923 34.3056C30.9131 33.9217 30.9545 33.5522 31.0168 33.1952C31.079 32.8361 31.1725 32.4957 31.2971 32.1678C31.4216 31.8419 31.5855 31.5285 31.7931 31.2275C32.011 30.9182 32.2933 30.6526 32.6399 30.4367C32.9866 30.2188 33.3561 30.0237 33.7442 29.8535C34.1324 29.6833 34.5266 29.5276 34.9252 29.3864C35.3237 29.2474 35.6828 29.1 36.0045 28.9443L36.2682 29.5193ZM36.2059 35.6984C36.2059 35.2853 36.1499 34.9345 36.0357 34.644C35.9215 34.3555 35.7617 34.1188 35.5604 33.9383C35.357 33.7598 35.1162 33.6269 34.8339 33.5439C34.5537 33.4609 34.2506 33.4194 33.931 33.4194C33.6508 33.4194 33.3685 33.4671 33.0883 33.5605C32.8081 33.6518 32.5549 33.7971 32.3328 33.9922C32.1086 34.1894 31.9239 34.4406 31.7786 34.7457C31.6333 35.0487 31.5606 35.4078 31.5606 35.8229V37.2945C31.5606 37.7096 31.6208 38.0583 31.7392 38.3489C31.8575 38.6395 32.0235 38.8761 32.2311 39.0629C32.4386 39.2477 32.6794 39.3826 32.9554 39.4656C33.2315 39.5466 33.5263 39.5881 33.8376 39.5881C34.1676 39.5881 34.481 39.5445 34.7716 39.4573C35.0643 39.3681 35.3154 39.2311 35.5292 39.0484C35.7409 38.8616 35.909 38.6229 36.0273 38.3323C36.1477 38.0459 36.2059 37.6993 36.2059 37.2945V35.6984Z" fill="#2B2A29"/>
<path d="M43.4334 39.1856H43.4168C43.0453 39.4243 42.7112 39.609 42.4164 39.7439C42.1196 39.8788 41.856 39.9826 41.6235 40.0552C41.389 40.1279 41.1793 40.1735 40.9925 40.1964C40.8078 40.2151 40.6418 40.2254 40.4965 40.2254C39.7804 40.2254 39.2034 40.0449 38.7633 39.6816C38.3233 39.3205 38.1033 38.7808 38.1033 38.0668C38.1033 37.6621 38.1863 37.3196 38.3523 37.0415C38.5184 36.7612 38.7239 36.535 38.973 36.3648C39.222 36.1946 39.496 36.0701 39.797 35.9912C40.0979 35.9144 40.3865 35.875 40.6667 35.875H43.4334V35.1132C43.4334 33.7454 42.7133 33.0625 41.2728 33.0625C40.9117 33.0625 40.538 33.1144 40.154 33.2182C39.7701 33.322 39.3819 33.5088 38.9896 33.7765L38.616 33.2182C39.0519 32.9276 39.4857 32.7221 39.9216 32.6038C40.3554 32.4855 40.8224 32.4253 41.3205 32.4253C41.8477 32.4253 42.2919 32.4855 42.6489 32.6038C43.0059 32.7221 43.2964 32.8965 43.5165 33.1248C43.7365 33.3531 43.8943 33.625 43.9898 33.9405C44.0852 34.256 44.133 34.6109 44.133 35.0053V40.1341H43.56L43.4334 39.1856ZM40.9323 36.481C40.7248 36.481 40.4985 36.4976 40.2557 36.5288C40.0128 36.5599 39.7845 36.6284 39.5707 36.7343C39.359 36.8443 39.1826 37.0041 39.0435 37.2179C38.9024 37.4254 38.8339 37.7098 38.8339 38.0585C38.8339 38.3263 38.8796 38.5566 38.973 38.7476C39.0664 38.9365 39.193 39.0942 39.3549 39.2188C39.5147 39.3412 39.7015 39.4346 39.9132 39.4969C40.1249 39.5592 40.3512 39.5882 40.5899 39.5882C40.8182 39.5882 41.0527 39.555 41.2955 39.4886C41.5404 39.4201 41.7854 39.335 42.0345 39.2354C42.2836 39.1316 42.5264 39.0133 42.7651 38.8846C43.0038 38.758 43.2259 38.6314 43.4334 38.5068V36.481H40.9323Z" fill="#2B2A29"/>
<path d="M54.0936 40.1342V33.1394H49.5086V40.1342H48.8091V32.5022H54.7931V40.1342H54.0936Z" fill="#2B2A29"/>
<path d="M62.284 37.444C62.284 38.3158 62.008 38.9966 61.458 39.4885C60.9079 39.9804 60.1752 40.2253 59.2599 40.2253C58.8157 40.2253 58.4068 40.161 58.0374 40.0323C57.6679 39.9036 57.3524 39.7168 57.0888 39.4719C56.8231 39.229 56.6156 38.9384 56.4703 38.6022C56.327 38.2659 56.2544 37.884 56.2544 37.4606V35.1297C56.2544 34.7146 56.3332 34.3389 56.4951 34.0026C56.6549 33.6664 56.875 33.38 57.1511 33.1475C57.425 32.915 57.7426 32.7324 58.1079 32.6037C58.4711 32.475 58.8614 32.4106 59.2765 32.4106C59.702 32.4106 60.1005 32.475 60.4679 32.6037C60.8374 32.7324 61.1569 32.915 61.4268 33.1475C61.6945 33.38 61.9083 33.6664 62.0577 34.0026C62.2072 34.3389 62.284 34.7146 62.284 35.1297V37.444ZM61.5846 35.3352C61.5846 34.9221 61.514 34.5672 61.3749 34.2766C61.2338 33.986 61.0553 33.7515 60.8373 33.5668C60.6215 33.3862 60.3745 33.2533 60.1005 33.1703C59.8244 33.0873 59.5525 33.0458 59.2847 33.0458C59.0045 33.0458 58.7243 33.0873 58.4441 33.1703C58.166 33.2533 57.917 33.3862 57.699 33.5668C57.4811 33.7515 57.3025 33.986 57.1634 34.2766C57.0223 34.5672 56.9538 34.9221 56.9538 35.3352V37.2842C56.9538 37.7097 57.0183 38.0688 57.1469 38.3593C57.2777 38.6499 57.4479 38.8845 57.6596 39.0692C57.8734 39.2498 58.1182 39.3826 58.3984 39.4656C58.6786 39.5466 58.9734 39.5881 59.2847 39.5881C59.594 39.5881 59.8867 39.5445 60.1628 39.4573C60.4368 39.3681 60.6796 39.2311 60.8934 39.0422C61.1051 38.8554 61.2733 38.6188 61.3978 38.3282C61.5223 38.0376 61.5846 37.6889 61.5846 37.2842V35.3352Z" fill="#2B2A29"/>
<path d="M70.8147 39.5281V42.0293H70.163V40.1342H63.8053V42.0293H63.1536V39.5427C63.247 39.5427 63.3424 39.5427 63.44 39.5427C63.5396 39.5427 63.6351 39.5385 63.7285 39.5281C63.907 39.3828 64.0648 39.2085 64.2059 39.0072C64.345 38.8038 64.4634 38.5588 64.563 38.2682C64.6605 37.9777 64.7394 37.6331 64.7955 37.2346C64.8515 36.8361 64.8992 36.3628 64.9303 35.8128C64.951 35.2545 64.9738 34.7023 65.0008 34.1585C65.0257 33.6147 65.0548 33.0626 65.086 32.5022H70.2231V39.5281H70.8147ZM69.5257 33.1394H65.7045L65.5654 35.9145C65.5135 36.7842 65.4223 37.5127 65.2936 38.1001C65.1628 38.6896 64.9532 39.1649 64.6626 39.5281H69.5257V33.1394Z" fill="#2B2A29"/>
<path d="M79.144 39.5281V42.0293H78.4923V40.1342H72.1348V42.0293H71.4829V39.5427C71.5763 39.5427 71.6719 39.5427 71.7694 39.5427C71.8691 39.5427 71.9646 39.5385 72.058 39.5281C72.2365 39.3828 72.3941 39.2085 72.5353 39.0072C72.6743 38.8038 72.7927 38.5588 72.8923 38.2682C72.9899 37.9777 73.0688 37.6331 73.1248 37.2346C73.1808 36.8361 73.2285 36.3628 73.2596 35.8128C73.2804 35.2545 73.3033 34.7023 73.3303 34.1585C73.3552 33.6147 73.3842 33.0626 73.4153 32.5022H78.5525V39.5281H79.144ZM77.8551 33.1394H74.0338L73.8949 35.9145C73.843 36.7842 73.7516 37.5127 73.6229 38.1001C73.4922 38.6896 73.2825 39.1649 72.992 39.5281H77.8551V33.1394Z" fill="#2B2A29"/>
<path d="M81.1012 36.6055V37.3195C81.1012 37.745 81.1697 38.102 81.3046 38.3926C81.4395 38.6831 81.616 38.9177 81.8318 39.1003C82.0498 39.2809 82.2988 39.4138 82.579 39.4968C82.8572 39.5777 83.1478 39.6192 83.4487 39.6192C83.8742 39.6192 84.2561 39.5466 84.5986 39.4034C84.9411 39.2581 85.2462 39.0547 85.516 38.7973L85.9498 39.2934C85.6302 39.6151 85.2566 39.8496 84.8311 40.0012C84.4076 40.1506 83.9364 40.2253 83.4175 40.2253C82.9817 40.2253 82.5811 40.1672 82.2137 40.0468C81.8464 39.9285 81.5267 39.7521 81.2569 39.5196C80.9891 39.2851 80.7774 38.9966 80.6279 38.6499C80.4785 38.3012 80.4038 37.9006 80.4038 37.444V35.2854C80.4038 34.8495 80.4744 34.4551 80.6197 34.1043C80.765 33.7515 80.9705 33.4485 81.2341 33.1952C81.4977 32.9399 81.8151 32.7469 82.1825 32.612C82.5499 32.4771 82.9506 32.4106 83.3864 32.4106C83.8119 32.4106 84.2001 32.4791 84.5529 32.6182C84.9037 32.7593 85.2109 32.9524 85.4683 33.2015C85.7278 33.4505 85.9269 33.7515 86.0681 34.1043C86.2071 34.4551 86.2777 34.8391 86.2777 35.2542V36.6055H81.1012ZM85.5783 35.3476C85.5783 34.9325 85.5118 34.5797 85.3831 34.2891C85.2545 34.0006 85.0863 33.7619 84.8788 33.5751C84.6712 33.3883 84.4388 33.2533 84.1794 33.1703C83.9199 33.0873 83.6563 33.0458 83.3864 33.0458C83.1062 33.0458 82.8302 33.0914 82.5562 33.1786C82.2801 33.2679 82.0373 33.4049 81.8256 33.5896C81.6118 33.7764 81.4395 34.0172 81.3046 34.314C81.1697 34.6087 81.1012 34.9574 81.1012 35.3622V35.9994H85.5783V35.3476Z" fill="#2B2A29"/>
<path d="M88.2334 32.5331L88.36 33.5294C88.7337 33.3011 89.0638 33.1122 89.3543 32.9607C89.6449 32.8112 89.9064 32.6971 90.1389 32.6182C90.3714 32.5414 90.5789 32.4874 90.7615 32.4563C90.9421 32.4252 91.1061 32.4106 91.2493 32.4106C91.9965 32.4106 92.584 32.6224 93.0137 33.0458C93.4433 33.4713 93.6591 34.1251 93.6591 35.0052V37.5851C93.6591 38.4444 93.4225 39.1024 92.9514 39.559C92.4802 40.0136 91.8243 40.2419 90.9857 40.2419C90.6744 40.2419 90.3153 40.2004 89.9064 40.1174C89.4975 40.0344 88.9807 39.8372 88.36 39.5279V43.2868H87.6606V32.5331H88.2334ZM88.36 38.8284C88.9267 39.1169 89.4144 39.3204 89.815 39.4345C90.2198 39.5466 90.5852 39.6047 90.9152 39.6047C91.5981 39.6047 92.1087 39.4304 92.4491 39.0837C92.7895 38.7371 92.9596 38.1912 92.9596 37.444V35.192C92.9596 34.4344 92.804 33.8968 92.4968 33.5751C92.1854 33.2533 91.7578 33.0935 91.2098 33.0935C90.8591 33.0935 90.4232 33.2015 89.9084 33.4194C89.3937 33.6373 88.8748 33.9217 88.36 34.2745V38.8284Z" fill="#2B2A29"/>
<path d="M99.2379 40.1341V36.5122H97.621C97.4342 36.5122 97.2661 36.5288 97.1166 36.5599C96.9672 36.591 96.8261 36.6491 96.6974 36.7384C96.5666 36.8256 96.4525 36.948 96.3549 37.1037C96.2574 37.2573 96.1701 37.4649 96.0975 37.7243L95.4001 40.1341H94.6841L95.4292 37.6268C95.5433 37.2407 95.6824 36.9128 95.8422 36.645C96.002 36.3731 96.2636 36.1967 96.6269 36.1136C96.3259 36.0306 96.0955 35.8604 95.9357 35.603C95.7759 35.3436 95.6367 35.0281 95.5226 34.6586L94.8252 32.4875H95.5226L96.2532 34.7624C96.3258 34.999 96.4193 35.1879 96.5335 35.3332C96.6476 35.4785 96.7701 35.5906 96.8988 35.6736C97.0275 35.7566 97.1664 35.8106 97.3096 35.8355C97.4549 35.8625 97.6002 35.8749 97.7455 35.8749H99.2379V32.4875H99.9373V35.8749H101.428C101.573 35.8749 101.718 35.8625 101.864 35.8355C102.009 35.8106 102.146 35.7566 102.277 35.6736C102.405 35.5906 102.522 35.4785 102.625 35.3332C102.729 35.1879 102.822 34.999 102.905 34.7624L103.636 32.4875H104.336L103.651 34.6586C103.537 35.0281 103.4 35.3436 103.24 35.603C103.078 35.8604 102.847 36.0306 102.549 36.1136C102.91 36.1967 103.171 36.3731 103.333 36.645C103.493 36.9128 103.63 37.2407 103.744 37.6268L104.489 40.1341H103.761L103.061 37.7243C102.989 37.4649 102.904 37.2573 102.804 37.1037C102.706 36.948 102.594 36.8256 102.47 36.7384C102.345 36.6491 102.206 36.591 102.05 36.5599C101.895 36.5288 101.724 36.5122 101.538 36.5122H99.9373V40.1341H99.2379Z" fill="#2B2A29"/>
<path d="M105.826 40.1341V32.4875H106.526V35.8749H108.578C108.877 35.8749 109.155 35.8085 109.409 35.6736C109.662 35.5408 109.878 35.2357 110.054 34.7624L110.909 32.4875H111.609L110.799 34.6586C110.664 35.0177 110.523 35.3311 110.372 35.5947C110.222 35.8563 109.996 36.0306 109.697 36.1136C109.882 36.1552 110.035 36.2216 110.156 36.315C110.274 36.4084 110.378 36.5225 110.465 36.6512C110.554 36.782 110.631 36.9294 110.7 37.0954C110.766 37.2615 110.83 37.4379 110.893 37.6268L111.762 40.1341H111.034L110.21 37.7243C110.127 37.4752 110.033 37.2718 109.93 37.1099C109.826 36.9501 109.712 36.8256 109.587 36.7384C109.463 36.6491 109.33 36.591 109.184 36.5599C109.039 36.5288 108.873 36.5122 108.686 36.5122H106.526V40.1341H105.826Z" fill="#2B2A29"/>
<path d="M118.196 33.6064C117.854 34.1046 117.516 34.5923 117.173 35.0739C116.835 35.5575 116.488 36.0453 116.137 36.5434C115.712 37.1453 115.297 37.7452 114.882 38.3471C114.471 38.947 114.049 39.5427 113.628 40.1342H112.928V32.5188H113.628V39.0757H113.659L115.718 36.1387L118.244 32.5188H118.927V40.1342H118.228V33.6064H118.196Z" fill="#2B2A29"/>
<path d="M123.9 40.1341V32.4875H124.6V35.8749H126.651C126.952 35.8749 127.228 35.8085 127.483 35.6736C127.736 35.5408 127.95 35.2357 128.126 34.7624L128.981 32.4875H129.681L128.874 34.6586C128.739 35.0177 128.595 35.3311 128.446 35.5947C128.297 35.8563 128.07 36.0306 127.769 36.1136C127.956 36.1552 128.11 36.2216 128.228 36.315C128.346 36.4084 128.45 36.5225 128.539 36.6512C128.627 36.782 128.705 36.9294 128.772 37.0954C128.838 37.2615 128.905 37.4379 128.967 37.6268L129.837 40.1341H129.106L128.282 37.7243C128.199 37.4752 128.106 37.2718 128.002 37.1099C127.9 36.9501 127.786 36.8256 127.661 36.7384C127.537 36.6491 127.402 36.591 127.257 36.5599C127.111 36.5288 126.945 36.5122 126.759 36.5122H124.6V40.1341H123.9Z" fill="#2B2A29"/>
<path d="M132.556 33.156V36.0411C132.556 36.6804 132.512 37.2346 132.421 37.6995C132.332 38.1645 132.201 38.563 132.033 38.9013C131.865 39.2376 131.663 39.5219 131.429 39.7544C131.196 39.9848 130.935 40.1903 130.644 40.3667L130.304 39.8374C130.551 39.6714 130.771 39.4908 130.964 39.2936C131.155 39.0964 131.317 38.8453 131.445 38.5401C131.574 38.235 131.676 37.8614 131.748 37.4214C131.821 36.9814 131.856 36.4355 131.856 35.7817V32.5188H136.784V40.1342H136.084V33.156H132.556Z" fill="#2B2A29"/>
<path d="M143.652 33.6064C143.309 34.1046 142.971 34.5923 142.629 35.0739C142.29 35.5575 141.941 36.0453 141.593 36.5434C141.167 37.1453 140.75 37.7452 140.337 38.3471C139.924 38.947 139.505 39.5427 139.083 40.1342H138.384V32.5188H139.083V39.0757H139.114L141.173 36.1387L143.697 32.5188H144.382V40.1342H143.683V33.6064H143.652Z" fill="#2B2A29"/>
<path d="M146.62 36.6055V37.3195C146.62 37.745 146.687 38.102 146.821 38.3926C146.956 38.6831 147.133 38.9177 147.351 39.1003C147.569 39.2809 147.816 39.4138 148.096 39.4968C148.376 39.5777 148.667 39.6192 148.966 39.6192C149.391 39.6192 149.775 39.5466 150.117 39.4034C150.458 39.2581 150.763 39.0547 151.033 38.7973L151.469 39.2934C151.147 39.6151 150.773 39.8496 150.35 40.0012C149.924 40.1506 149.453 40.2253 148.934 40.2253C148.501 40.2253 148.098 40.1672 147.731 40.0468C147.363 39.9285 147.043 39.7521 146.776 39.5196C146.506 39.2851 146.296 38.9966 146.147 38.6499C145.995 38.3012 145.921 37.9006 145.921 37.444V35.2854C145.921 34.8495 145.993 34.4551 146.139 34.1043C146.284 33.7515 146.487 33.4485 146.753 33.1952C147.016 32.9399 147.332 32.7469 147.699 32.612C148.067 32.4771 148.469 32.4106 148.903 32.4106C149.329 32.4106 149.717 32.4791 150.07 32.6182C150.423 32.7593 150.728 32.9524 150.987 33.2015C151.247 33.4505 151.446 33.7515 151.585 34.1043C151.724 34.4551 151.795 34.8391 151.795 35.2542V36.6055H146.62ZM151.095 35.3476C151.095 34.9325 151.031 34.5797 150.902 34.2891C150.771 34.0006 150.603 33.7619 150.396 33.5751C150.188 33.3883 149.956 33.2533 149.696 33.1703C149.439 33.0873 149.173 33.0458 148.903 33.0458C148.625 33.0458 148.347 33.0914 148.073 33.1786C147.799 33.2679 147.554 33.4049 147.342 33.5896C147.131 33.7764 146.956 34.0172 146.821 34.314C146.687 34.6087 146.62 34.9574 146.62 35.3622V35.9994H151.095V35.3476Z" fill="#2B2A29"/>
<path d="M158.493 40.1342V36.5745H153.876V40.1342H153.177V32.5188H153.876V35.9373H158.493V32.5188H159.192V40.1342H158.493Z" fill="#2B2A29"/>
<path d="M163.48 33.1394V40.1342H162.781V33.1394H160.186V32.5022H166.077V33.1394H163.48Z" fill="#2B2A29"/>
<path d="M172.713 37.444C172.713 38.3158 172.437 38.9966 171.885 39.4885C171.337 39.9804 170.604 40.2253 169.689 40.2253C169.244 40.2253 168.836 40.161 168.466 40.0323C168.097 39.9036 167.781 39.7168 167.515 39.4719C167.252 39.229 167.044 38.9384 166.899 38.6022C166.756 38.2659 166.683 37.884 166.683 37.4606V35.1297C166.683 34.7146 166.762 34.3389 166.924 34.0026C167.084 33.6664 167.304 33.38 167.578 33.1475C167.854 32.915 168.171 32.7324 168.537 32.6037C168.9 32.475 169.29 32.4106 169.705 32.4106C170.129 32.4106 170.529 32.475 170.896 32.6037C171.266 32.7324 171.586 32.915 171.855 33.1475C172.123 33.38 172.337 33.6664 172.486 34.0026C172.636 34.3389 172.713 34.7146 172.713 35.1297V37.444ZM172.013 35.3352C172.013 34.9221 171.943 34.5672 171.804 34.2766C171.662 33.986 171.484 33.7515 171.266 33.5668C171.048 33.3862 170.803 33.2533 170.529 33.1703C170.253 33.0873 169.981 33.0458 169.713 33.0458C169.433 33.0458 169.153 33.0873 168.873 33.1703C168.595 33.2533 168.346 33.3862 168.128 33.5668C167.91 33.7515 167.731 33.986 167.592 34.2766C167.451 34.5672 167.383 34.9221 167.383 35.3352V37.2842C167.383 37.7097 167.447 38.0688 167.576 38.3593C167.704 38.6499 167.877 38.8845 168.088 39.0692C168.3 39.2498 168.547 39.3826 168.827 39.4656C169.107 39.5466 169.402 39.5881 169.713 39.5881C170.023 39.5881 170.315 39.5445 170.591 39.4573C170.865 39.3681 171.108 39.2311 171.32 39.0422C171.534 38.8554 171.702 38.6188 171.826 38.3282C171.951 38.0376 172.013 37.6889 172.013 37.2842V35.3352Z" fill="#2B2A29"/>
<path d="M180 38.0088C180 38.2869 179.95 38.5568 179.853 38.8141C179.753 39.0736 179.608 39.3019 179.417 39.497C179.226 39.6921 178.987 39.8478 178.703 39.9619C178.416 40.0761 178.088 40.1342 177.715 40.1342H174.157V32.5022H177.59C177.995 32.5022 178.34 32.5582 178.624 32.6662C178.91 32.7741 179.145 32.9173 179.332 33.0958C179.519 33.2722 179.656 33.4819 179.743 33.7247C179.832 33.9697 179.876 34.2208 179.876 34.4823C179.876 34.6276 179.857 34.7791 179.822 34.941C179.784 35.1009 179.722 35.2545 179.635 35.3977C179.548 35.543 179.427 35.6841 179.278 35.8128C179.126 35.9436 178.937 36.0494 178.711 36.1324C178.948 36.2258 179.151 36.3442 179.317 36.4894C179.481 36.6347 179.614 36.7904 179.712 36.9606C179.811 37.1308 179.884 37.3093 179.929 37.4961C179.977 37.6829 180 37.8531 180 38.0088ZM179.301 37.9963C179.301 37.768 179.255 37.5605 179.162 37.3695C179.068 37.1806 178.944 37.0146 178.788 36.8755C178.632 36.7344 178.454 36.6306 178.252 36.56C178.049 36.4874 177.835 36.45 177.607 36.45H174.857V39.497H177.559C178.068 39.497 178.485 39.3683 178.811 39.1172C179.137 38.8639 179.301 38.4903 179.301 37.9963ZM179.162 34.501C179.162 34.2519 179.114 34.0381 179.02 33.8679C178.927 33.6936 178.8 33.5545 178.641 33.4466C178.479 33.3345 178.298 33.2556 178.097 33.21C177.893 33.1643 177.684 33.1394 177.468 33.1394H174.857V35.8128H177.559C177.756 35.8128 177.954 35.7879 178.151 35.736C178.348 35.6841 178.518 35.6011 178.663 35.4911C178.809 35.3831 178.927 35.2482 179.02 35.0843C179.114 34.9244 179.162 34.7314 179.162 34.501Z" fill="#2B2A29"/>
</svg>
