<svg width="279" height="55" viewBox="0 0 279 55" fill="none" xmlns="http://www.w3.org/2000/svg">
<path d="M54.9856 41.1245C54.9856 48.1863 49.2834 54.0019 41.952 54.0019H13.4409C5.70221 54.0019 0 48.1863 0 41.1245V13.2928C0 5.40019 5.70221 0 13.4409 0H41.952C49.2834 0 54.9856 5.81559 54.9856 12.8774V41.1245Z" fill="#FECC00"/>
<path d="M52.9479 41.5399C52.9479 47.3555 48.0603 52.3403 41.9508 52.3403H13.0324C6.92289 52.3403 2.03528 47.3555 2.03528 41.5399V12.8774C2.03528 6.64641 6.92289 1.66162 13.0324 1.66162H41.9508C48.0603 1.66162 52.9479 6.64641 52.9479 12.8774V41.5399Z" fill="#2B2724"/>
<path d="M41.1365 38.2169C41.1365 39.8785 41.1365 41.1247 40.3219 41.9555C39.5073 43.2017 38.2854 43.6171 37.0635 43.6171C35.4343 43.6171 34.6197 43.2017 33.8051 42.3709C32.9905 41.1247 32.9905 39.8785 32.9905 38.2169V26.1703C32.9905 25.3395 33.3978 24.9241 34.2124 24.9241H36.6562C38.2854 24.9241 39.1 25.3395 40.3219 26.5857C41.1365 27.4165 41.1365 29.0781 41.1365 30.7397V38.2169ZM42.7657 24.9241C41.1365 23.6779 39.9146 23.2625 37.4708 23.2625H32.9905V18.6931C32.9905 17.4469 33.8051 16.6161 35.8416 16.6161H43.173V14.5391H28.9175V23.2625H25.2518V17.8623C25.2518 14.9545 23.6226 12.8775 21.9933 11.2159C19.9568 9.55432 16.6984 9.13892 14.2546 9.13892L11.8108 10.3851C15.4765 10.3851 17.513 10.8005 19.1422 12.4621C20.7714 13.7083 21.1787 16.2007 21.1787 18.2777V22.0163C21.1787 22.8471 20.7714 23.2625 19.9568 23.2625H10.9962V24.9241H19.9568C20.3641 24.9241 21.1787 25.3395 21.1787 26.1703V31.5705C21.1787 33.6475 20.7714 36.1399 19.1422 37.3861C17.513 38.6323 15.8838 39.4631 11.4035 39.8785L14.2546 41.1247C16.6984 41.1247 19.5495 40.7093 21.586 38.6323C23.2153 37.3861 25.2518 35.3091 25.2518 31.9859V24.9241H27.6956C28.5102 24.9241 28.9175 24.9241 28.9175 26.1703V36.9707C28.9175 39.4631 29.7321 41.5401 30.954 43.2017C32.5832 44.4478 34.6197 45.694 37.0635 45.694C39.5073 45.694 41.9511 44.4478 43.173 42.7863C44.3949 41.1247 44.8022 39.4631 44.8022 37.3861V31.1551C44.8022 29.0781 44.8022 26.5857 42.7657 24.9241Z" fill="#FECC00"/>
<path d="M83.9032 7.06183C80.6448 4.15404 76.1644 3.32324 72.4987 3.32324L69.2403 4.56944C74.5352 4.98484 77.3863 5.40024 80.2375 7.89263C82.274 9.55423 83.0886 13.7082 83.0886 16.616V23.2624C83.0886 24.5086 82.274 24.924 81.0521 24.924H68.0184V26.5856H81.0521C82.274 26.5856 83.0886 27.001 83.0886 28.2472V36.9706C83.0886 40.7092 82.6813 43.617 80.2375 45.694C78.201 47.3556 75.3498 48.6018 68.833 49.0172L72.4987 50.2633C76.1644 50.2633 80.2375 49.4326 83.0886 46.9402C85.9397 44.8632 88.3835 41.54 88.3835 36.9706V16.616C88.3835 12.0466 86.347 8.72343 83.9032 7.06183Z" fill="#2B2724"/>
<path d="M275.334 29.0778C274.112 27.4162 272.483 26.5854 270.039 26.5854C271.668 26.17 273.298 25.3392 274.52 23.6776L277.371 17.0312H274.52L271.668 22.8468C270.854 24.5084 269.225 26.17 266.781 26.17H265.559C264.744 26.17 264.744 25.7546 264.744 24.9238V17.0312H261.079V36.555H264.744V28.247C264.744 27.8316 265.152 27.4162 265.966 27.4162H267.188C270.039 27.4162 270.854 28.6624 271.668 29.9086L274.927 36.555H279L275.334 29.0778Z" fill="#2B2724"/>
<path d="M107.934 29.0778C106.712 27.4162 105.083 26.5854 102.639 26.5854C104.675 26.17 106.305 25.3392 107.119 23.6776L110.378 17.0312H107.119L104.675 22.8468C103.861 24.5084 102.232 26.17 99.3804 26.17H98.5658C97.7512 26.17 97.7512 25.7546 97.7512 24.9238V17.0312H93.6782V36.555H97.7512V28.247C97.7512 27.8316 97.7512 27.4162 98.5658 27.4162H100.195C102.639 27.4162 103.861 28.6624 104.675 29.9086L107.934 36.555H111.599L107.934 29.0778Z" fill="#2B2724"/>
<path d="M147.034 17.0312V32.401C147.034 33.2318 146.22 34.0626 144.998 34.8934C143.776 34.8934 142.961 35.3088 141.332 35.3088C138.074 35.3088 136.445 33.6472 136.445 30.324V17.0312H132.372V29.9086C132.372 31.9856 133.186 34.0626 135.63 35.7242C136.852 36.555 138.481 36.9704 140.925 36.9704C144.183 36.9704 144.998 36.555 147.034 35.3088C147.442 34.8934 148.256 34.8934 148.664 36.1396C149.071 36.9704 150.293 36.555 150.7 36.555V17.0312H147.034Z" fill="#2B2724"/>
<path d="M177.99 17.0313C177.175 17.4467 176.361 17.8621 175.953 18.6929L170.251 26.1701C169.029 27.8317 167.807 27.8317 166.585 26.1701L158.847 17.8621C157.625 17.0313 157.625 17.0313 155.588 17.0313V36.555H157.625V23.2623C157.625 22.8469 158.032 22.4315 158.032 22.8469L164.142 29.0779C166.585 31.5703 169.029 30.7395 170.251 29.0779L175.139 22.4315C175.546 22.0161 175.953 22.0161 175.953 22.8469V36.555H180.026V17.0313C179.212 16.6159 178.397 16.6159 177.99 17.0313Z" fill="#2B2724"/>
<path d="M224.422 35.7246C221.163 35.7246 220.756 34.8938 219.941 34.063C219.127 32.8168 219.127 31.986 219.127 29.4936C219.127 27.0012 219.127 26.1704 219.941 25.3396C220.756 24.5088 221.571 23.678 224.422 23.678C226.458 23.678 228.087 23.678 229.309 24.9242V33.6476C228.495 35.3092 226.458 35.7246 224.422 35.7246ZM231.346 18.6932C230.124 17.447 228.495 16.6162 224.422 16.6162C223.607 16.6162 219.941 16.6162 218.719 17.447C217.905 17.8624 217.498 17.8624 216.276 18.6932L217.09 19.9394C217.905 19.1086 218.719 18.6932 219.534 18.6932C220.756 17.8624 222.385 18.2778 224.014 18.2778C226.865 18.2778 228.087 19.1086 228.902 19.9394C229.309 21.1856 229.309 21.601 229.309 22.8472V23.2626C227.273 22.4318 226.458 22.4318 223.607 22.4318C220.756 22.4318 219.127 22.8472 217.905 23.678C215.868 24.9242 215.461 26.5858 215.461 29.4936V29.909C215.461 32.8168 215.868 34.4784 217.905 35.7246C219.534 36.9708 220.756 36.9708 224.422 36.9708C226.865 36.9708 228.087 36.5554 229.309 35.7246C230.531 34.8938 230.531 36.5554 232.568 36.5554H232.975V23.2626C232.975 21.1856 232.568 19.9394 231.346 18.6932Z" fill="#2B2724"/>
<path d="M252.525 17.0312V24.5084C252.525 25.3392 252.118 25.7546 251.303 25.7546H242.75C241.936 25.7546 241.528 25.3392 241.528 24.5084V17.0312H237.863V36.555H241.528V28.247C241.528 27.4162 241.936 27.0008 243.157 27.0008H251.303C252.118 27.0008 252.525 27.4162 252.525 28.6624V36.555H256.191V17.0312H252.525Z" fill="#2B2724"/>
<path d="M206.093 39.0475C206.093 41.5399 206.093 43.2015 205.279 44.8631C204.057 46.5247 202.02 47.7709 199.984 47.7709C197.54 47.7709 195.911 46.9401 194.689 45.2785C193.874 43.6169 193.467 41.9553 193.467 39.4629V19.9391C193.467 19.1083 193.874 18.2775 195.096 18.2775H199.577C202.02 18.2775 203.65 19.1083 204.872 20.7699C206.093 22.0161 206.093 24.5085 206.093 26.5855V39.0475ZM208.13 19.1083C205.686 17.4467 203.65 17.0313 199.984 17.0313H193.467V7.89252C193.467 6.64632 193.874 5.40012 195.504 5.40012H208.945V3.73853H195.911H188.172V17.0313H184.914V18.2775H185.728C187.358 18.2775 188.172 18.6929 188.172 20.3545V36.5551C188.172 40.7091 188.58 43.2015 190.209 44.8631C192.245 47.3555 195.504 49.017 199.984 49.017C203.65 49.017 206.908 47.3555 208.945 45.2785C210.574 43.2015 211.388 40.7091 211.388 36.9705V28.2471C211.388 24.9239 210.981 21.6007 208.13 19.1083Z" fill="#2B2724"/>
<path d="M128.706 33.6476C127.484 35.3092 125.447 35.7246 123.004 35.7246C120.153 35.7246 118.931 34.8938 118.523 34.063C117.709 32.8168 117.709 31.986 117.709 29.4936V24.0934C117.709 21.601 117.709 20.7702 118.523 19.524C118.931 18.6932 120.153 18.2778 123.004 18.2778C125.04 18.2778 127.077 18.2778 128.706 19.524L129.52 18.2778C127.484 16.6162 125.447 16.6162 122.596 16.6162C119.745 16.6162 117.301 17.0316 116.08 17.8624C114.45 19.524 113.636 20.7702 113.636 23.678V29.909C113.636 32.8168 114.45 34.4784 116.08 35.7246C117.301 36.5554 119.745 36.9708 122.596 36.9708C125.04 36.9708 127.891 36.9708 129.928 34.8938L128.706 33.6476Z" fill="#2B2724"/>
</svg>
